<svg width="1440" height="300" viewBox="0 0 1440 300" fill="none" xmlns="http://www.w3.org/2000/svg">
<path opacity="0.85" d="M0 52.8192L48 44.6955C96 36.8755 192 20.1726 288 16.3764C384 12.5803 480 20.1726 576 44.6955C672 68.7629 768 109.761 864 93.2859C960 77.1144 1056 4.22884 1152 0.204947C1248 -4.12263 1344 61.1707 1392 93.2859L1440 125.705V150H1392C1344 150 1248 150 1152 150C1056 150 960 150 864 150C768 150 672 150 576 150C480 150 384 150 288 150C192 150 96 150 48 150H0V52.8192Z" fill="#0012B0"/>
<path opacity="0.85" d="M1440 247.181L1392 255.304C1344 263.124 1248 279.827 1152 283.624C1056 287.42 960 279.827 864 255.304C768 231.237 672 190.239 576 206.714C480 222.886 384 295.771 288 299.795C192 304.123 96 238.829 48 206.714L0 174.295V150H48C96 150 192 150 288 150C384 150 480 150 576 150C672 150 768 150 864 150C960 150 1056 150 1152 150C1248 150 1344 150 1392 150H1440V247.181Z" fill="#0012B0"/>
</svg>
